<svg width="24" height="24" viewBox="0 0 24 24" fill="none" xmlns="http://www.w3.org/2000/svg">
<rect width="24" height="24" rx="12" fill="#444746"/>
<path d="M11.946 17.224C11.3767 17.224 10.854 17.112 10.378 16.888C9.91136 16.664 9.52402 16.3467 9.21602 15.936C8.91736 15.516 8.73069 15.012 8.65602 14.424L10.126 14.088C10.2007 14.6013 10.3967 15.012 10.714 15.32C11.0314 15.628 11.442 15.782 11.946 15.782C12.2914 15.782 12.5947 15.712 12.856 15.572C13.1267 15.432 13.332 15.236 13.472 14.984C13.6214 14.732 13.696 14.438 13.696 14.102C13.696 13.7567 13.6167 13.458 13.458 13.206C13.2994 12.954 13.0754 12.7627 12.786 12.632C12.506 12.492 12.1794 12.422 11.806 12.422H11.022V11.064H11.75C12.0674 11.064 12.3474 11.008 12.59 10.896C12.842 10.784 13.038 10.616 13.178 10.392C13.3274 10.168 13.402 9.89733 13.402 9.58C13.402 9.16 13.2667 8.81467 12.996 8.544C12.7254 8.27333 12.3474 8.138 11.862 8.138C11.5727 8.138 11.316 8.194 11.092 8.306C10.868 8.418 10.686 8.57667 10.546 8.782C10.406 8.978 10.308 9.21133 10.252 9.482L8.82402 9.3C8.89869 8.81467 9.06669 8.38067 9.32802 7.998C9.59869 7.61533 9.94869 7.312 10.378 7.088C10.8167 6.864 11.316 6.752 11.876 6.752C12.492 6.752 13.024 6.86867 13.472 7.102C13.92 7.33533 14.2654 7.65267 14.508 8.054C14.76 8.446 14.886 8.894 14.886 9.398C14.886 9.79933 14.8254 10.14 14.704 10.42C14.5827 10.7 14.424 10.9333 14.228 11.12C14.0414 11.3067 13.8407 11.4653 13.626 11.596V11.68C13.934 11.8013 14.2047 11.9787 14.438 12.212C14.6807 12.436 14.8674 12.7113 14.998 13.038C15.138 13.3553 15.208 13.7333 15.208 14.172C15.208 14.7507 15.068 15.2733 14.788 15.74C14.5174 16.1973 14.1394 16.5613 13.654 16.832C13.1687 17.0933 12.5994 17.224 11.946 17.224Z" fill="#E3E3E3"/>
</svg>
