<svg width="24" height="24" viewBox="0 0 24 24" fill="none" xmlns="http://www.w3.org/2000/svg">
<rect width="24" height="24" rx="12" fill="#444746"/>
<path d="M8.92919 17V15.544C9.25585 15.292 9.56385 15.0493 9.85319 14.816C10.1425 14.5827 10.4132 14.3587 10.6652 14.144C10.9172 13.9293 11.1505 13.724 11.3652 13.528C11.5892 13.3227 11.7945 13.1267 11.9812 12.94C12.1679 12.7533 12.3312 12.5667 12.4712 12.38C12.7045 12.1 12.8959 11.8247 13.0452 11.554C13.1945 11.274 13.3019 10.994 13.3672 10.714C13.4419 10.4247 13.4792 10.1307 13.4792 9.832C13.4792 9.468 13.4139 9.16467 13.2832 8.922C13.1525 8.67933 12.9659 8.49267 12.7232 8.362C12.4899 8.23133 12.2052 8.166 11.8692 8.166C11.5519 8.166 11.2765 8.23133 11.0432 8.362C10.8099 8.49267 10.6232 8.684 10.4832 8.936C10.3432 9.17867 10.2499 9.468 10.2032 9.804L8.77519 9.664C8.80319 9.26267 8.89185 8.88467 9.04119 8.53C9.19052 8.17533 9.39585 7.86733 9.65719 7.606C9.92785 7.34467 10.2452 7.13933 10.6092 6.99C10.9825 6.83133 11.4072 6.752 11.8832 6.752C12.5365 6.752 13.0919 6.86867 13.5492 7.102C14.0159 7.33533 14.3705 7.67133 14.6132 8.11C14.8652 8.54867 14.9912 9.076 14.9912 9.692C14.9912 10.1307 14.9352 10.5553 14.8232 10.966C14.7112 11.3767 14.5479 11.7687 14.3332 12.142C14.1279 12.5153 13.8805 12.8747 13.5912 13.22C13.4512 13.3973 13.3019 13.57 13.1432 13.738C12.9845 13.8967 12.8165 14.06 12.6392 14.228C12.4712 14.3867 12.2939 14.5453 12.1072 14.704C11.9299 14.8533 11.7432 15.0073 11.5472 15.166C11.3512 15.3153 11.1552 15.46 10.9592 15.6L10.9872 15.642H15.1732V17H8.92919Z" fill="#E3E3E3"/>
</svg>
