<svg width="32" height="32" viewBox="0 0 32 32" fill="none" xmlns="http://www.w3.org/2000/svg">
<rect width="32" height="32" rx="16" fill="#F2F2F2"/>
<path d="M16.049 21.2357C15.4517 21.2357 14.901 21.1283 14.397 20.9137C13.9023 20.6897 13.4917 20.3583 13.165 19.9197C12.8477 19.481 12.647 18.9397 12.563 18.2957L14.369 17.9317C14.4437 18.417 14.6257 18.795 14.915 19.0657C15.2137 19.3363 15.5917 19.4717 16.049 19.4717C16.357 19.4717 16.6277 19.4157 16.861 19.3037C17.0943 19.1917 17.2717 19.0283 17.393 18.8137C17.5237 18.599 17.589 18.3423 17.589 18.0437C17.589 17.745 17.519 17.4837 17.379 17.2597C17.239 17.0357 17.0383 16.863 16.777 16.7417C16.525 16.611 16.2217 16.5457 15.867 16.5457H15.069V14.9497H15.811C16.1097 14.9497 16.371 14.9077 16.595 14.8237C16.819 14.7303 16.9963 14.5903 17.127 14.4037C17.2577 14.2077 17.323 13.9603 17.323 13.6617C17.323 13.307 17.2017 13.013 16.959 12.7797C16.7257 12.537 16.399 12.4157 15.979 12.4157C15.7177 12.4157 15.4843 12.4717 15.279 12.5837C15.0737 12.6863 14.9057 12.831 14.775 13.0177C14.6537 13.195 14.5697 13.391 14.523 13.6057L12.759 13.4097C12.843 12.915 13.0203 12.4717 13.291 12.0797C13.5617 11.6783 13.9257 11.361 14.383 11.1277C14.8403 10.885 15.3817 10.7637 16.007 10.7637C16.6323 10.7637 17.1783 10.8803 17.645 11.1137C18.1117 11.347 18.471 11.669 18.723 12.0797C18.9843 12.481 19.115 12.943 19.115 13.4657C19.115 13.839 19.0543 14.1563 18.933 14.4177C18.821 14.679 18.6717 14.903 18.485 15.0897C18.3077 15.2763 18.1117 15.4397 17.897 15.5797V15.6917C18.205 15.8223 18.471 15.9997 18.695 16.2237C18.9283 16.4383 19.1103 16.709 19.241 17.0357C19.3717 17.353 19.437 17.7357 19.437 18.1837C19.437 18.7437 19.297 19.257 19.017 19.7237C18.7463 20.181 18.359 20.5497 17.855 20.8297C17.351 21.1003 16.749 21.2357 16.049 21.2357Z" fill="#5E5E5E"/>
</svg>
