<svg width="32" height="32" viewBox="0 0 32 32" fill="none" xmlns="http://www.w3.org/2000/svg">
<rect width="32" height="32" rx="16" fill="#F2F2F2"/>
<path d="M12.864 21.125V19.445C13.2186 19.165 13.5453 18.9036 13.844 18.661C14.152 18.409 14.432 18.1756 14.684 17.961C14.9453 17.737 15.1833 17.527 15.398 17.331C15.6126 17.135 15.804 16.9483 15.972 16.771C16.1493 16.5936 16.3033 16.421 16.434 16.253C16.6393 15.9916 16.8026 15.7396 16.924 15.497C17.0453 15.2543 17.134 15.007 17.19 14.755C17.246 14.503 17.274 14.2416 17.274 13.971C17.274 13.691 17.2133 13.4483 17.092 13.243C16.9706 13.0376 16.8026 12.879 16.588 12.767C16.3826 12.6456 16.14 12.585 15.86 12.585C15.5893 12.585 15.3466 12.641 15.132 12.753C14.9266 12.865 14.7586 13.0283 14.628 13.243C14.4973 13.4483 14.404 13.705 14.348 14.013L12.626 13.859C12.6633 13.439 12.766 13.047 12.934 12.683C13.102 12.319 13.326 12.0016 13.606 11.731C13.886 11.4603 14.2173 11.2503 14.6 11.101C14.9826 10.9516 15.412 10.877 15.888 10.877C16.5693 10.877 17.148 10.9983 17.624 11.241C18.1093 11.4743 18.478 11.815 18.73 12.263C18.9913 12.711 19.122 13.2523 19.122 13.887C19.122 14.307 19.066 14.713 18.954 15.105C18.8513 15.4876 18.702 15.8563 18.506 16.211C18.3193 16.5563 18.0953 16.8923 17.834 17.219C17.7033 17.387 17.5633 17.5503 17.414 17.709C17.2646 17.8676 17.106 18.0263 16.938 18.185C16.7793 18.3343 16.616 18.4836 16.448 18.633C16.28 18.773 16.1073 18.913 15.93 19.053C15.7526 19.193 15.5753 19.3283 15.398 19.459L15.44 19.529H19.374V21.125H12.864Z" fill="#5E5E5E"/>
</svg>
